<svg width="24" height="24" viewBox="0 0 24 24" fill="none" xmlns="http://www.w3.org/2000/svg">
<path d="M11.9403 0C8.01605 0 4.80005 3.2064 4.80005 7.11984C4.80005 8.63616 5.28437 10.0454 6.10397 11.2037L11.0688 19.7868C11.7641 20.6952 12.2264 20.5226 12.8045 19.7388L18.2808 10.4196C18.3912 10.2194 18.4781 10.0063 18.5537 9.78864C18.9012 8.94179 19.0799 8.03521 19.0798 7.11984C19.08 3.2064 15.865 0 11.9403 0ZM11.9403 3.336C14.0537 3.336 15.7342 5.01264 15.7342 7.11984C15.7342 9.22704 14.0537 10.903 11.9403 10.903C9.82709 10.903 8.14589 9.22728 8.14589 7.11984C8.14589 5.01264 9.82709 3.33624 11.9403 3.33624V3.336Z" fill="#D9D9D9"/>
<path d="M16.5391 11.738L16.5276 11.7683C16.5312 11.7592 16.5341 11.7498 16.5377 11.7407L16.5391 11.738ZM8.16146 16.5738C4.77122 17.0528 2.40002 18.1988 2.40002 19.8858C2.40002 22.1581 6.36194 24.0001 12 24.0001C17.6381 24.0001 21.6 22.1581 21.6 19.8858C21.6 18.1988 19.2291 17.0528 15.8391 16.5738L15.3694 17.3735C17.9244 17.728 19.68 18.4729 19.68 19.3374C19.68 20.5494 16.2415 21.5317 12 21.5317C7.7585 21.5317 4.32002 20.5494 4.32002 19.3374C4.31978 18.4758 6.06386 17.7316 8.62682 17.3756C8.47202 17.1083 8.3165 16.8414 8.16146 16.5738Z" fill="#D9D9D9"/>
</svg>
