<svg width="14" height="14" viewBox="0 0 14 14" fill="none" xmlns="http://www.w3.org/2000/svg">
<path d="M7.0025 0.00118105C5.7518 0.000815437 4.52384 0.335533 3.44633 0.970524C2.36881 1.60552 1.48108 2.51759 0.875457 3.6119C0.269836 4.70621 -0.0315586 5.94279 0.00261416 7.19305C0.0367869 8.4433 0.40528 9.66157 1.06977 10.7212L1.23631 10.9857L0.528823 13.5677L3.17806 12.8732L3.43318 13.0244C4.51164 13.6631 5.74201 14.0001 6.99541 14H6.99896C8.85544 14.0003 10.636 13.2631 11.949 11.9506C13.2619 10.638 13.9997 8.8577 14 7.00118C14.0003 5.14467 13.2631 3.36406 11.9506 2.05109C10.6381 0.738112 8.8578 0.000313284 7.00132 0L7.0025 0.00118105ZM11.1175 10.0054C10.9627 10.2611 10.7566 10.482 10.5123 10.6541C10.268 10.8263 9.99065 10.946 9.6978 11.0058C9.25564 11.0817 8.80189 11.0533 8.37259 10.9231C7.96546 10.7963 7.56529 10.648 7.17376 10.479C5.72067 9.74979 4.48212 8.6553 3.57964 7.30296C3.08732 6.67692 2.78848 5.92077 2.71979 5.12731C2.71411 4.7998 2.77672 4.47469 2.90361 4.17271C3.0305 3.87073 3.2189 3.59848 3.4568 3.37332C3.52711 3.29312 3.61324 3.22832 3.70979 3.18299C3.80633 3.13766 3.91121 3.11279 4.01783 3.10993C4.1572 3.10993 4.29775 3.10993 4.42059 3.11702C4.55051 3.12292 4.72295 3.06741 4.89303 3.47844C5.0702 3.89893 5.49068 4.93478 5.54264 5.03991C5.576 5.09501 5.59509 5.15757 5.59819 5.22192C5.60128 5.28626 5.58828 5.35036 5.56036 5.40842C5.50737 5.53478 5.43658 5.65291 5.35012 5.75922C5.24382 5.88205 5.12926 6.03324 5.03477 6.12773C4.92847 6.23285 4.8198 6.34624 4.94146 6.55648C5.25743 7.09751 5.65188 7.58869 6.11194 8.014C6.61112 8.45781 7.18388 8.81115 7.80447 9.05813C8.01471 9.16443 8.13755 9.14553 8.26038 9.00498C8.38322 8.86442 8.78598 8.39079 8.92653 8.18054C9.06708 7.9703 9.20646 8.00574 9.39898 8.07542C9.5915 8.14511 10.6273 8.65418 10.8376 8.76048C11.0478 8.86679 11.1884 8.91757 11.2403 9.00498C11.2979 9.34329 11.2552 9.69107 11.1175 10.0054Z" fill="#05BCCA"/>
</svg>
